<?xml version="1.0" encoding="UTF-8" standalone="no"?><svg xmlns:svg="http://www.w3.org/2000/svg" xmlns="http://www.w3.org/2000/svg" version="1.1" style="overflow:visible" viewBox="-250 -250 500 500" height="500px" width="500px"><rect fill-opacity="0" fill="rgb(0,0,0)" height="500" width="500" y="-250" x="-250" /><svg version="1.1" y="-250" x="-250" viewBox="-250 -250 500 500" height="500px" width="500px" style="overflow:visible"><g transform="rotate(46,0,0)" stroke-linejoin="round" fill="#fff"><path stroke-linecap="butt" stroke-linejoin="round" stroke-width="0" stroke-opacity="0" stroke="rgb(0,0,0)" fill="rgb(0,0,0)" d="m-144.548802-72.106101c-9.97667 0.01441-19.843231 2.096347-28.97378 6.114449l51.81176 51.77733l-37.06054 37.03689l-51.77524-51.74081c-4.028091 9.111212-6.122479 18.95718-6.153125 28.91801c0.000004 39.82253 32.30326 72.105878 72.15098 72.105878c28.72298-0.014081 54.70212-17.0544 66.14399-43.383341h156.8105c11.44176 26.32905 37.4209 43.36937 66.14399 43.38334c39.84772 0 72.15098-32.283351 72.15098-72.10588s-32.30326-72.10588-72.150982-72.10588c-28.701641 0.0374-54.65053 17.07387-66.08382 43.38334h-156.9304c-11.433291-26.30947-37.382181-43.345941-66.08382-43.383341zm289.097598 36.9424a35.16348 35.16348 0 0 1 35.16348 35.16348a35.16348 35.16348 0 0 1-35.16348 35.16348a35.16348 35.16348 0 0 1-35.16348-35.16348a35.16348 35.16348 0 0 1 35.16348-35.16348z" /></g></svg></svg>