<?xml version="1.0" encoding="UTF-8" standalone="no"?><svg xmlns:svg="http://www.w3.org/2000/svg" xmlns="http://www.w3.org/2000/svg" version="1.1" style="overflow:visible" viewBox="-250 -250 500 500" height="500px" width="500px"><rect fill-opacity="0" fill="rgb(0,0,0)" height="500" width="500" y="-250" x="-250" /><svg version="1.1" y="-250" x="-247" viewBox="-250 -250 500 500" height="500px" width="500px" style="overflow:visible"><g transform="rotate(0,0,0)" stroke-linejoin="round" fill="#fff"><path stroke-linecap="butt" stroke-linejoin="round" stroke="none" fill="rgb(255,255,255)" d="m-170.917949-149.35274c-20.903092 0-37.732052 17.0023-37.732052 38.126133v222.453c0 21.123726 16.82896 38.126026 37.732051 38.126026h170.91752c55.073007-100.778378 71.238672-200.70204 0-298.70548z" /><path stroke-linecap="butt" stroke-linejoin="round" stroke="none" fill="rgb(255,255,255)" d="m0-149.35274v298.70548h170.91752c20.903092 0 37.732051-17.0023 37.732051-38.126026v-222.453001c0-21.123726-16.828961-38.126026-37.732052-38.126026z" /><path stroke-linecap="round" stroke-linejoin="round" stroke-width="20" stroke-opacity="1" stroke="rgb(0,0,0)" fill="none" d="m164.3948-89.612501h-120.13853" /><path stroke-linecap="round" stroke-linejoin="round" stroke-width="20" stroke-opacity="1" stroke="rgb(0,0,0)" fill="none" d="m164.3948-29.871191h-120.13853" /><path stroke-linecap="round" stroke-linejoin="round" stroke-width="20" stroke-opacity="1" stroke="rgb(0,0,0)" fill="none" d="m164.3948 29.871188h-120.13853" /><path stroke-linecap="round" stroke-linejoin="round" stroke-width="20" stroke-opacity="1" stroke="rgb(0,0,0)" fill="none" d="m164.3948 89.6125h-120.13853" /><path stroke-linecap="round" stroke-linejoin="round" stroke-width="20" stroke-opacity="1" stroke="rgb(0,0,0)" fill="none" d="m-44.255202-89.612501h-120.13853" /><path stroke-linecap="round" stroke-linejoin="round" stroke-width="20" stroke-opacity="1" stroke="rgb(0,0,0)" fill="none" d="m-44.255202-29.871191h-120.13853" /><path stroke-linecap="round" stroke-linejoin="round" stroke-width="20" stroke-opacity="1" stroke="rgb(0,0,0)" fill="none" d="m-44.255202 29.871188h-120.13853" /><path stroke-linecap="round" stroke-linejoin="round" stroke-width="20" stroke-opacity="1" stroke="rgb(0,0,0)" fill="none" d="m-44.255202 89.6125h-120.13853" /><path stroke-linecap="butt" stroke-linejoin="round" stroke-width="20" stroke-opacity="1" stroke="rgb(0,0,0)" fill="none" d="m0-149.35488v298.70869" /><path stroke-linecap="butt" stroke-linejoin="round" stroke-width="20" stroke-opacity="1" stroke="rgb(0,0,0)" fill="none" d="m-170.918805-149.35488h341.83718c20.903092 0 37.731196 17.005831 37.731196 38.129557v222.44979c0 21.123833-16.828104 38.129557-37.731197 38.129557h-341.83718c-20.903092 0-37.731197-17.005831-37.731197-38.129558v-222.44979c0-21.123833 16.828104-38.129558 37.731196-38.129558z" /></g></svg><svg version="1.1" y="-195" x="-133" viewBox="-250 -250 500 500" height="500px" width="500px" style="overflow:visible"><g transform="rotate(211,0,0)" stroke-linejoin="round" fill="#fff"><path stroke-linecap="butt" stroke-linejoin="round" stroke-width="20" stroke-opacity="1" stroke="rgb(0,0,0)" fill="rgb(0,0,0)" d="m-17.859721-87.548231c11.90772 13.118734 23.81544 10.103667 35.723098 0l-17.861146-43.10244z" /><path stroke-linecap="butt" stroke-linejoin="round" stroke="none" fill="rgb(255,255,255)" d="m-17.859721-87.548231l-17.150564 41.38121c16.415305 12.857166 33.13373 19.169906 50.442021 12.756264c4.111635-21.230826-2.192345-39.206122-9.75043-54.137407z" /><path stroke-linecap="butt" stroke-linejoin="round" stroke="none" fill="rgb(255,255,255)" d="m5.676099-87.548231l5.452075 41.38121l11.029552 9.622674c4.24496-2.383338 8.527232-5.549885 12.850802-9.622674l-17.150564-41.38121h-12.181264z" /><path stroke-linecap="butt" stroke-linejoin="round" stroke-width="20" stroke-opacity="1" stroke="rgb(0,0,0)" fill="none" d="m-17.859721-87.548231l-17.150564 41.380272c22.523174 17.64177 45.615632 22.992457 70.02342 0l-17.150564-41.380273z" /><path stroke-linecap="butt" stroke-linejoin="round" stroke="none" fill="rgb(255,255,255)" d="m-11.131481-46.171041c-9.062044 59.183579-13.486613 118.10023-14.305694 176.81233h49.293534c-0.713881-58.486645-4.624661-117.38065-12.725128-176.81233z" /><path stroke-linecap="butt" stroke-linejoin="round" stroke="none" fill="rgb(255,255,255)" d="m-35.012641-46.171041v176.81233h23.880291v-176.81233z" /><path stroke-linecap="butt" stroke-linejoin="round" stroke="none" fill="rgb(255,255,255)" d="m11.130859-46.171041v176.81233h23.880291v-176.81233z" /><path stroke-linecap="butt" stroke-linejoin="round" stroke-width="20" stroke-opacity="1" stroke="rgb(0,0,0)" fill="none" d="m-35.012641-46.171041v176.821039h70.02342v-176.82104z" /></g></svg></svg>