<?xml version="1.0" encoding="UTF-8" standalone="no"?><svg xmlns:svg="http://www.w3.org/2000/svg" xmlns="http://www.w3.org/2000/svg" version="1.1" style="overflow:visible" viewBox="-250 -250 500 500" height="500px" width="500px"><rect fill-opacity="0" fill="rgb(0,0,0)" height="500" width="500" y="-250" x="-250" /><svg version="1.1" y="-250" x="-250" viewBox="-250 -250 500 500" height="500px" width="500px" style="overflow:visible"><g transform="rotate(0,0,0)" stroke-linejoin="round" fill="#fff"><path stroke-linecap="butt" stroke-linejoin="round" stroke="none" fill="rgb(255,255,255)" d="m-102.881462 61.75356c-2.598342 45.048058-13.124023 89.217293 0 136.00884c-0.041503 0.016456-0.083248 0.030492-0.124824 0.046706c5.819374 1.783963 11.936988 3.421214 18.327628 4.89613c12.995521-46.983938 2.813939-93.967875 0-140.95169h-18.202877zm187.575409 0c-3.319018 46.703217-12.660956 92.945665 0 140.87425c6.300131-1.458668 12.389311-3.078846 18.206144-4.865047c12.992132-45.336643 16.807626-90.671713 0-136.00884zm-139.16936 0.00363c-2.220508 48.557905-13.353197 96.126997 0 146.41c17.092097 2.312443 35.403753 3.584516 54.476136 3.58483c18.669573-0.014399 37.067502-1.255994 54.482428-3.628524c14.122999-47.784473 2.75529-97.38201 0-146.36765z" /><path stroke-linecap="butt" stroke-linejoin="round" stroke="none" fill="rgb(255,255,255)" d="m54.486298 61.75356v146.368859c10.480306-1.4278 20.597104-3.271477 30.209222-5.497006v-140.87183h-30.209223z" /><path stroke-linecap="butt" stroke-linejoin="round" stroke="none" fill="rgb(255,255,255)" d="m102.8984 61.75356v136.00884a168.31584 66.574563 0 0 0 65.427604-52.584422v-83.423813z" /><path stroke-linecap="butt" stroke-linejoin="round" stroke="none" fill="rgb(255,255,255)" d="m-54.46936 61.75356v146.368859c-10.480307-1.4278-20.597104-3.271477-30.209223-5.497006v-140.87183h30.209222z" /><path stroke-linecap="butt" stroke-linejoin="round" stroke="none" fill="rgb(255,255,255)" d="m-102.881462 61.75356v136.00884a168.31584 66.574563 0 0 1-65.427604-52.584422v-83.423813z" /><path stroke-linecap="butt" stroke-linejoin="round" stroke-width="10" stroke-opacity="1" stroke="rgb(8,8,8)" fill="none" d="m-168.31584 61.75356v83.420667a168.31584 66.574563 0 0 0 168.31584 66.576135a168.31584 66.574563 0 0 0 168.31584-66.576136v-83.420667h-336.64741z" /><path stroke-linecap="butt" stroke-linejoin="round" stroke-width="10" stroke-opacity="1" stroke="rgb(8,8,8)" fill="rgb(255,255,255)" d="m168.315838 61.75356a168.31584 66.574563 0 0 1-168.31584 66.574563a168.31584 66.574563 0 0 1-168.31584-66.574563a168.31584 66.574563 0 0 1 168.31584-66.574563a168.31584 66.574563 0 0 1 168.31584 66.574563z" /><path stroke-linecap="butt" stroke-linejoin="round" stroke="none" fill="rgb(255,255,255)" d="m-102.881462-41.70991c-2.598342 45.048058-13.124023 89.217293 0 136.00884c-0.041503 0.016456-0.083248 0.030492-0.124824 0.046706c5.819374 1.783963 11.936988 3.421214 18.327628 4.89613c12.995521-46.983938 2.813939-93.967875 0-140.95169h-18.202877zm187.575409 0c-3.319018 46.703217-12.660956 92.945665 0 140.87425c6.300131-1.458668 12.389311-3.078846 18.206144-4.865035c12.992132-45.336643 16.807626-90.671713 0-136.00884zm-139.16936 0.00363c-2.220508 48.557905-13.353197 96.126997 0 146.41c17.092097 2.312443 35.403753 3.584516 54.476136 3.58483c18.669573-0.014399 37.067502-1.255994 54.482428-3.628524c14.122999-47.784473 2.75529-97.38201 0-146.36765z" /><path stroke-linecap="butt" stroke-linejoin="round" stroke="none" fill="rgb(255,255,255)" d="m54.486298-41.70991v146.368859c10.480306-1.427788 20.597104-3.271477 30.209222-5.497006v-140.87183h-30.209223z" /><path stroke-linecap="butt" stroke-linejoin="round" stroke="none" fill="rgb(255,255,255)" d="m102.8984-41.70991v136.00884a168.31584 66.574563 0 0 0 65.427604-52.584422v-83.423934z" /><path stroke-linecap="butt" stroke-linejoin="round" stroke="none" fill="rgb(255,255,255)" d="m-54.46936-41.70991v146.368859c-10.480307-1.427788-20.597104-3.271477-30.209223-5.497006v-140.87183h30.209222z" /><path stroke-linecap="butt" stroke-linejoin="round" stroke="none" fill="rgb(255,255,255)" d="m-102.881462-41.70991v136.00884a168.31584 66.574563 0 0 1-65.427604-52.584422v-83.423934z" /><path stroke-linecap="butt" stroke-linejoin="round" stroke-width="10" stroke-opacity="1" stroke="rgb(8,8,8)" fill="none" d="m-168.31584-41.70991v83.420667a168.31584 66.574563 0 0 0 168.31584 66.576135a168.31584 66.574563 0 0 0 168.31584-66.576136v-83.420667h-336.64741z" /><path stroke-linecap="butt" stroke-linejoin="round" stroke-width="10" stroke-opacity="1" stroke="rgb(8,8,8)" fill="rgb(255,255,255)" d="m168.315838-41.70991a168.31584 66.574563 0 0 1-168.31584 66.574563a168.31584 66.574563 0 0 1-168.31584-66.574563a168.31584 66.574563 0 0 1 168.31584-66.574563a168.31584 66.574563 0 0 1 168.31584 66.574563z" /><path stroke-linecap="butt" stroke-linejoin="round" stroke="none" fill="rgb(255,255,255)" d="m-102.881462-145.17217c-2.598342 45.048058-13.124023 89.217293 0 136.00884c-0.041503 0.016456-0.083248 0.030492-0.124824 0.046706c5.819374 1.783963 11.936988 3.421214 18.327628 4.89613c12.995521-46.983938 2.813939-93.967875 0-140.95169h-18.202877zm187.575409 0c-3.319018 46.703337-12.660956 92.945665 0 140.87425c6.300131-1.458668 12.389311-3.078846 18.206144-4.865035c12.992132-45.336643 16.807626-90.671713 0-136.00884zm-139.16936 0.00363c-2.220508 48.557905-13.353197 96.126997 0 146.41c17.092097 2.312443 35.403753 3.584516 54.476136 3.58483c18.669573-0.014399 37.067502-1.255994 54.482428-3.628524c14.122999-47.784473 2.75529-97.38201 0-146.36765z" /><path stroke-linecap="butt" stroke-linejoin="round" stroke="none" fill="rgb(255,255,255)" d="m54.486298-145.17217v146.368859c10.480306-1.427788 20.597104-3.271477 30.209222-5.497006v-140.87183h-30.209223z" /><path stroke-linecap="butt" stroke-linejoin="round" stroke="none" fill="rgb(255,255,255)" d="m102.8984-145.17217v136.00884a168.31584 66.574563 0 0 0 65.427604-52.584422v-83.423934z" /><path stroke-linecap="butt" stroke-linejoin="round" stroke="none" fill="rgb(255,255,255)" d="m-54.46936-145.17217v146.368859c-10.480307-1.427788-20.597104-3.271477-30.209223-5.497006v-140.87183h30.209222z" /><path stroke-linecap="butt" stroke-linejoin="round" stroke="none" fill="rgb(255,255,255)" d="m-102.881462-145.17217v136.00884a168.31584 66.574563 0 0 1-65.434017-52.592408v-83.423934h65.427604z" /><path stroke-linecap="butt" stroke-linejoin="round" stroke-width="10" stroke-opacity="1" stroke="rgb(8,8,8)" fill="none" d="m-168.31584-145.17217v83.420667a168.31584 66.574563 0 0 0 168.31584 66.577709a168.31584 66.574563 0 0 0 168.31584-66.577709v-83.420667h-336.64741z" /><path stroke-linecap="butt" stroke-linejoin="round" stroke-width="10" stroke-opacity="1" stroke="rgb(8,8,8)" fill="rgb(255,255,255)" d="m168.315838-145.17217a168.31584 66.574563 0 0 1-168.31584 66.577709a168.31584 66.574563 0 0 1-168.31584-66.577709a168.31584 66.574563 0 0 1 168.31584-66.577709a168.31584 66.574563 0 0 1 168.31584 66.577709z" /></g></svg></svg>